<svg width="206" height="78" viewBox="0 0 206 78" fill="none" xmlns="http://www.w3.org/2000/svg">
<rect width="206" height="77.9774" rx="38.9887" fill="#F2E6C3"/>
<path d="M87.7425 46.0437L82.7334 32.8225H80.983L75.9738 46.0437H77.7987L79.1581 42.2263H84.5583L85.9176 46.0437H87.7425ZM81.523 35.5784C81.6347 35.2805 81.7278 34.9639 81.8395 34.5729H81.8768C81.9885 34.9639 82.0816 35.2805 82.1934 35.5784L84.0369 40.7366H79.6795L81.523 35.5784ZM92.458 46.2672C93.9105 46.2672 94.916 45.5595 95.4747 44.3119V46.0437H96.9644V32.5431H95.3816V38.111C94.7857 37.0123 93.8732 36.5095 92.6442 36.5095C90.3165 36.5095 88.6778 38.5206 88.6778 41.3883C88.6778 44.3119 90.2048 46.2672 92.458 46.2672ZM92.8863 44.8705C91.3035 44.8705 90.3538 43.567 90.3538 41.3883C90.3538 39.191 91.3035 37.9061 92.8863 37.9061C94.4505 37.9061 95.4188 39.1538 95.4188 41.1835V41.6118C95.4188 43.6043 94.4319 44.8705 92.8863 44.8705ZM102.878 46.2672C104.33 46.2672 105.336 45.5595 105.895 44.3119V46.0437H107.384V32.5431H105.802V38.111C105.206 37.0123 104.293 36.5095 103.064 36.5095C100.737 36.5095 99.0979 38.5206 99.0979 41.3883C99.0979 44.3119 100.625 46.2672 102.878 46.2672ZM103.306 44.8705C101.723 44.8705 100.774 43.567 100.774 41.3883C100.774 39.191 101.723 37.9061 103.306 37.9061C104.871 37.9061 105.839 39.1538 105.839 41.1835V41.6118C105.839 43.6043 104.852 44.8705 103.306 44.8705ZM117.595 46.2672C119.122 46.2672 120.295 45.5409 120.724 44.3491C120.742 44.945 120.798 45.5595 120.873 46.0437H122.53C122.306 45.3175 122.213 44.3305 122.213 42.8967V40.3828C122.213 37.664 121.096 36.5095 118.545 36.5095C116.366 36.5095 114.876 37.7571 114.746 39.6565H116.441C116.515 38.4834 117.297 37.813 118.564 37.813C119.997 37.813 120.612 38.502 120.612 40.2152V40.3642L118.88 40.569C117.353 40.7552 116.459 40.9787 115.752 41.3325C114.914 41.798 114.448 42.5987 114.448 43.5298C114.448 45.1871 115.696 46.2672 117.595 46.2672ZM117.949 44.9637C116.813 44.9637 116.124 44.405 116.124 43.4926C116.124 42.5801 116.72 42.0959 118.098 41.8911L120.631 41.5187V41.9842C120.631 43.7905 119.569 44.9637 117.949 44.9637ZM131.374 49.6749V44.5726C131.784 45.4851 132.789 46.2672 134.223 46.2672C136.476 46.2672 138.078 44.3678 138.078 41.3883C138.078 38.4461 136.569 36.5095 134.316 36.5095C132.957 36.5095 131.877 37.1799 131.281 38.4648V36.733H129.791V49.6749H131.374ZM133.851 44.8705C132.305 44.8705 131.337 43.6043 131.337 41.5932V41.1463C131.337 39.1351 132.342 37.9061 133.907 37.9061C135.471 37.9061 136.402 39.191 136.402 41.3883C136.402 43.567 135.434 44.8705 133.851 44.8705ZM140.211 32.5431V46.0437H141.794V32.5431H140.211ZM147.182 46.2672C148.709 46.2672 149.882 45.5409 150.311 44.3491C150.329 44.945 150.385 45.5595 150.46 46.0437H152.117C151.894 45.3175 151.8 44.3305 151.8 42.8967V40.3828C151.8 37.664 150.683 36.5095 148.132 36.5095C145.953 36.5095 144.464 37.7571 144.333 39.6565H146.028C146.102 38.4834 146.884 37.813 148.151 37.813C149.584 37.813 150.199 38.502 150.199 40.2152V40.3642L148.467 40.569C146.94 40.7552 146.046 40.9787 145.339 41.3325C144.501 41.798 144.035 42.5987 144.035 43.5298C144.035 45.1871 145.283 46.2672 147.182 46.2672ZM147.536 44.9637C146.4 44.9637 145.711 44.405 145.711 43.4926C145.711 42.5801 146.307 42.0959 147.685 41.8911L150.218 41.5187V41.9842C150.218 43.7905 149.156 44.9637 147.536 44.9637ZM156.124 46.0437V41.1835C156.124 39.1165 157.074 37.8689 158.619 37.8689C159.979 37.8689 160.668 38.7068 160.668 40.3455V46.0437H162.25V40.2524C162.25 37.7758 161.189 36.5095 159.141 36.5095C157.67 36.5095 156.645 37.1799 156.031 38.5765V36.733H154.541V46.0437H156.124ZM165.266 38.0365V43.2505C165.266 44.9823 165.788 46.2113 167.799 46.2113C168.395 46.2113 168.767 46.1554 169.177 46.0437V44.5912C168.86 44.6657 168.618 44.7216 168.209 44.7216C167.259 44.7216 166.849 44.256 166.849 43.1946V38.0365H169.177V36.733H166.849V33.6232L165.266 34.2936V36.733H163.535V38.0365H165.266Z" fill="#004C1A"/>
<rect x="13.3747" y="13.9324" width="50.1561" height="50.156" rx="25.078" fill="#224722"/>
<path d="M40.0019 29.9004H37.0816V37.7488H29.3427V40.5231H37.0816V48.3714H40.0019V40.5231H47.7407V37.7488H40.0019V29.9004Z" fill="#E0FFC0"/>
</svg>
