<svg width="144" height="144" viewBox="0 0 144 144" fill="none" xmlns="http://www.w3.org/2000/svg">
<path d="M28.8 0H115.2C131.16 0 144 12.84 144 28.8V115.2C144 131.16 131.16 144 115.2 144H28.8C12.84 144 0 131.16 0 115.2V28.8C0 12.84 12.84 0 28.8 0Z" fill="#224722"/>
<path d="M96.96 41.2801C91.8 36.8401 84.96 34.5601 76.56 34.5601H48.72V110.16H51.36C57.6 110.16 62.52 105.12 62.52 99V83.4001V71.8801V46.0801H75.36C80.16 46.0801 84 47.1601 86.76 49.2001C89.52 51.3601 90.84 54.4801 90.84 58.6801C90.84 62.8801 89.4 66.1201 86.64 68.4001C83.76 70.6801 80.04 71.7601 75.12 71.7601C70.32 71.7601 66.48 75.6001 66.48 80.4001V83.2801H76.2C81.48 83.2801 86.28 82.2 90.6 80.04C94.92 77.88 98.4 74.8801 100.92 71.1601C103.44 67.4401 104.64 63.1201 104.64 58.5601C104.64 51.6001 102.12 45.8401 96.96 41.2801Z" fill="#C4DEA9"/>
</svg>
