<svg width="126" height="37" viewBox="0 0 126 37" fill="none" xmlns="http://www.w3.org/2000/svg">
<path d="M121.167 0.729042C123.324 0.729042 125.08 2.44326 125.08 4.54991V31.8499C125.08 33.9566 123.324 35.6708 121.167 35.6708H4.66025C2.50256 35.6708 0.746805 33.9566 0.746805 31.8499V4.54991C0.746805 2.44326 2.50256 0.729042 4.66025 0.729042H121.167ZM121.167 -9.33704e-05H4.66025C2.09828 -9.33704e-05 0 2.04854 0 4.54991V31.8499C0 34.3513 2.09828 36.3999 4.66025 36.3999H121.167C123.729 36.3999 125.827 34.3513 125.827 31.8499V4.54991C125.827 2.04854 123.729 -9.33704e-05 121.167 -9.33704e-05Z" fill="#224722"/>
<path d="M44.1952 9.32198C44.1952 10.0818 43.9622 10.6904 43.5032 11.1443C42.9754 11.6823 42.288 11.953 41.4457 11.953C40.6406 11.953 39.9532 11.6777 39.3894 11.1352C38.8243 10.5846 38.5424 9.90893 38.5424 9.10016C38.5424 8.2914 38.8243 7.61573 39.3894 7.06973C39.9532 6.52259 40.6406 6.24731 41.4457 6.24731C41.8465 6.24731 42.2286 6.32808 42.5933 6.47823C42.9568 6.62951 43.2527 6.83426 43.4671 7.08679L42.9801 7.56682C42.6061 7.1357 42.097 6.92299 41.4457 6.92299C40.8585 6.92299 40.3494 7.12319 39.9171 7.527C39.4896 7.93195 39.2752 8.45634 39.2752 9.10016C39.2752 9.74399 39.4896 10.2729 39.9171 10.6779C40.3494 11.0771 40.8585 11.2819 41.4457 11.2819C42.069 11.2819 42.5933 11.0771 43.0069 10.6733C43.2795 10.406 43.4345 10.0375 43.4752 9.56654H41.4457V8.90906H44.1533C44.1859 9.05125 44.1952 9.18889 44.1952 9.32198Z" fill="#224722"/>
<path d="M48.4912 7.0423H45.9479V8.7713H48.2408V9.42877H45.9479V11.1578H48.4912V11.8278H45.2279V6.37231H48.4912V7.0423Z" fill="#224722"/>
<path d="M51.522 11.8278H50.802V7.0423H49.2419V6.37231H53.0832V7.0423H51.522V11.8278Z" fill="#224722"/>
<path d="M55.8633 11.8278V6.37231H56.5821V11.8278H55.8633Z" fill="#224722"/>
<path d="M59.7689 11.8278H59.0547V7.0423H57.4889V6.37231H61.3348V7.0423H59.7689V11.8278Z" fill="#224722"/>
<path d="M68.607 11.1261C68.0559 11.6777 67.3732 11.953 66.5588 11.953C65.7398 11.953 65.057 11.6777 64.506 11.1261C63.956 10.5755 63.6823 9.89983 63.6823 9.10016C63.6823 8.3005 63.956 7.62483 64.506 7.07428C65.057 6.52259 65.7398 6.24731 66.5588 6.24731C67.3685 6.24731 68.0512 6.52259 68.6023 7.07883C69.1569 7.63393 69.4307 8.30505 69.4307 9.10016C69.4307 9.89983 69.1569 10.5755 68.607 11.1261ZM65.0384 10.6688C65.4531 11.0771 65.9576 11.2819 66.5588 11.2819C67.1553 11.2819 67.6644 11.0771 68.0745 10.6688C68.4881 10.2604 68.6978 9.73603 68.6978 9.10016C68.6978 8.4643 68.4881 7.93991 68.0745 7.53155C67.6644 7.12319 67.1553 6.91844 66.5588 6.91844C65.9576 6.91844 65.4531 7.12319 65.0384 7.53155C64.6248 7.93991 64.4151 8.4643 64.4151 9.10016C64.4151 9.73603 64.6248 10.2604 65.0384 10.6688Z" fill="#224722"/>
<path d="M70.4402 11.8278V6.37231H71.314L74.0309 10.6152H74.0624L74.0309 9.56641V6.37231H74.7498V11.8278H73.9995L71.1544 7.37559H71.1229L71.1544 8.42891V11.8278H70.4402Z" fill="#224722"/>
<path d="M63.505 19.7948C61.3158 19.7948 59.5275 21.4214 59.5275 23.6657C59.5275 25.8917 61.3158 27.5354 63.505 27.5354C65.6988 27.5354 67.4872 25.8917 67.4872 23.6657C67.4872 21.4214 65.6988 19.7948 63.505 19.7948ZM63.505 26.0112C62.3038 26.0112 61.2704 25.0432 61.2704 23.6657C61.2704 22.27 62.3038 21.319 63.505 21.319C64.7062 21.319 65.7442 22.27 65.7442 23.6657C65.7442 25.0432 64.7062 26.0112 63.505 26.0112ZM54.8264 19.7948C52.6326 19.7948 50.8489 21.4214 50.8489 23.6657C50.8489 25.8917 52.6326 27.5354 54.8264 27.5354C57.0191 27.5354 58.804 25.8917 58.804 23.6657C58.804 21.4214 57.0191 19.7948 54.8264 19.7948ZM54.8264 26.0112C53.6241 26.0112 52.5872 25.0432 52.5872 23.6657C52.5872 22.27 53.6241 21.319 54.8264 21.319C56.0276 21.319 57.061 22.27 57.061 23.6657C57.061 25.0432 56.0276 26.0112 54.8264 26.0112ZM44.4993 20.9812V22.626H48.5223C48.4046 23.5451 48.09 24.2208 47.6077 24.6917C47.0205 25.2604 46.1059 25.8917 44.4993 25.8917C42.0236 25.8917 40.0849 23.9409 40.0849 21.5238C40.0849 19.1066 42.0236 17.1558 44.4993 17.1558C45.838 17.1558 46.812 17.6665 47.5308 18.3285L48.718 17.1694C47.7126 16.2321 46.3751 15.5121 44.4993 15.5121C41.1043 15.5121 38.2511 18.2091 38.2511 21.5238C38.2511 24.8384 41.1043 27.5354 44.4993 27.5354C46.3343 27.5354 47.7126 26.9485 48.7961 25.8474C49.9064 24.7633 50.2524 23.2391 50.2524 22.0083C50.2524 21.6261 50.2198 21.2746 50.1615 20.9812H44.4993ZM86.7282 22.2563C86.4008 21.3907 85.3907 19.7948 83.3332 19.7948C81.2943 19.7948 79.5968 21.3634 79.5968 23.6657C79.5968 25.8337 81.2769 27.5354 83.5289 27.5354C85.3499 27.5354 86.4008 26.4514 86.833 25.8201L85.4816 24.9408C85.0307 25.5846 84.4167 26.0112 83.5289 26.0112C82.647 26.0112 82.0143 25.6165 81.6089 24.8384L86.9111 22.6965L86.7282 22.2563ZM81.3223 23.5451C81.2769 22.0527 82.5095 21.2883 83.3926 21.2883C84.0847 21.2883 84.6719 21.6261 84.8676 22.1096L81.3223 23.5451ZM77.0127 27.3H78.7557V15.925H77.0127V27.3ZM74.1583 20.657H74.1001C73.7086 20.2043 72.9618 19.7948 72.0158 19.7948C70.0305 19.7948 68.2153 21.4965 68.2153 23.6782C68.2153 25.8474 70.0305 27.5354 72.0158 27.5354C72.9618 27.5354 73.7086 27.1225 74.1001 26.6561H74.1583V27.2112C74.1583 28.6911 73.3486 29.4862 72.0426 29.4862C70.9777 29.4862 70.3171 28.7355 70.0445 28.1042L68.5287 28.7218C68.9656 29.7479 70.1225 31.0105 72.0426 31.0105C74.0861 31.0105 75.8104 29.8366 75.8104 26.9803V20.0302H74.1583V20.657ZM72.1649 26.0112C70.9637 26.0112 69.9583 25.0295 69.9583 23.6782C69.9583 22.3143 70.9637 21.319 72.1649 21.319C73.3486 21.319 74.2818 22.3143 74.2818 23.6782C74.2818 25.0295 73.3486 26.0112 72.1649 26.0112ZM94.8883 15.925H90.7197V27.3H92.458V22.99H94.8883C96.8188 22.99 98.712 21.6261 98.712 19.4569C98.712 17.2888 96.8141 15.925 94.8883 15.925ZM94.9337 21.4077H92.458V17.5072H94.9337C96.2316 17.5072 96.9726 18.5594 96.9726 19.4569C96.9726 20.3373 96.2316 21.4077 94.9337 21.4077ZM105.679 19.7731C104.423 19.7731 103.117 20.3146 102.58 21.5146L104.123 22.146C104.455 21.5146 105.065 21.3099 105.711 21.3099C106.612 21.3099 107.527 21.8388 107.541 22.7727V22.8922C107.226 22.7147 106.553 22.452 105.725 22.452C104.063 22.452 102.37 23.3449 102.37 25.0113C102.37 26.5356 103.731 27.5172 105.261 27.5172C106.431 27.5172 107.076 27.0019 107.481 26.4025H107.541V27.2818H109.22V22.9183C109.22 20.9015 107.677 19.7731 105.679 19.7731ZM105.469 26.0066C104.901 26.0066 104.109 25.7314 104.109 25.0432C104.109 24.1628 105.097 23.8249 105.952 23.8249C106.717 23.8249 107.076 23.9898 107.541 24.2071C107.405 25.2604 106.476 26.0066 105.469 26.0066ZM115.336 20.0222L113.338 24.9533H113.279L111.213 20.0222H109.339L112.442 26.9132L110.671 30.7477H112.488L117.27 20.0222H115.336ZM99.6674 27.3H101.41V15.925H99.6674V27.3Z" fill="#224722"/>
<path d="M9.72643 6.86026C9.45264 7.14009 9.29419 7.57575 9.29419 8.13995V28.2646C9.29419 28.8288 9.45264 29.2645 9.72643 29.5443L9.794 29.6057L21.3444 18.3331V18.0669L9.794 6.79429L9.72643 6.86026Z" fill="#224722"/>
<path d="M25.1904 22.0925L21.3445 18.3331V18.0669L25.195 14.3075L25.2812 14.3564L29.8413 16.8896C31.1427 17.6085 31.1427 18.7915 29.8413 19.515L25.2812 22.0436L25.1904 22.0925Z" fill="#224722"/>
<path d="M25.281 22.0437L21.3442 18.2001L9.7262 29.5444C10.1584 29.988 10.8633 30.0415 11.6649 29.5978L25.281 22.0437Z" fill="#224722"/>
<path d="M25.281 14.3563L11.6649 6.8022C10.8633 6.36313 10.1584 6.41659 9.7262 6.86021L21.3442 18.2L25.281 14.3563Z" fill="#224722"/>
</svg>
