<svg width="234" height="234" viewBox="0 0 234 234" fill="none" xmlns="http://www.w3.org/2000/svg">
<rect width="233.8" height="233.8" rx="51.9555" fill="#C4DEA9"/>
<g clip-path="url(#clip0_9489_57993)">
<path d="M71.3701 89.8462H79.542V135.671H71.3701V89.8462Z" fill="#224722"/>
<path d="M85.4105 112.045C85.6462 110.617 86.1176 109.241 86.851 107.917C87.5582 106.593 88.5011 105.372 89.6535 104.256C90.806 103.14 92.2727 102.231 94.0538 101.582C95.8348 100.907 97.7992 100.595 99.947 100.595C102.619 100.595 104.95 100.959 106.888 101.712C108.826 102.439 110.345 103.503 111.445 104.853C112.545 106.203 113.331 107.709 113.829 109.345C114.326 111.006 114.562 112.85 114.562 114.901V127.597C114.562 130.868 114.745 133.568 115.138 135.697H106.966C106.783 134.581 106.704 133.335 106.704 131.933V130.297H106.652C104.688 134.529 101.073 136.632 95.8086 136.632C92.1156 136.632 89.1821 135.646 87.0344 133.698C84.8866 131.725 83.8127 129.31 83.8127 126.403C83.8127 125.208 83.9961 124.092 84.389 123.079C84.7818 122.067 85.2533 121.236 85.8557 120.535C86.4319 119.86 87.1915 119.237 88.1082 118.692C89.0249 118.146 89.8893 117.705 90.7274 117.393C91.5394 117.082 92.5085 116.77 93.6347 116.511C94.761 116.251 95.6777 116.043 96.4111 115.939C97.1444 115.81 98.0088 115.706 98.9779 115.576C99.5279 115.524 99.9208 115.446 100.157 115.42C102.514 115.083 104.19 114.615 105.159 114.018C106.128 113.421 106.626 112.46 106.626 111.084C106.626 109.734 106.05 108.67 104.897 107.891C103.745 107.112 102.147 106.723 100.104 106.723C98.3231 106.723 96.8301 107.19 95.5729 108.151C94.3157 109.111 93.5038 110.409 93.0585 112.071H85.4105V112.045ZM93.5038 122.898C92.3775 123.676 91.8275 124.741 91.8275 126.065C91.8275 127.389 92.3775 128.48 93.4514 129.31C94.5252 130.141 96.0444 130.557 97.9564 130.557C99.135 130.557 100.235 130.375 101.257 129.986C102.252 129.622 103.195 129.025 104.033 128.22C104.871 127.415 105.526 126.299 106.023 124.897C106.495 123.469 106.731 121.807 106.731 119.886V116.744C106.285 117.731 105.447 118.588 104.269 119.289C103.09 119.99 101.23 120.587 98.7421 121.08C96.3849 121.496 94.63 122.119 93.5038 122.898Z" fill="#224722"/>
<path d="M119.616 135.672V101.608H127.605V107.553C129.752 102.984 133.184 100.699 137.898 100.699C142.141 100.699 145.258 101.945 147.249 104.438C149.239 106.93 150.261 110.306 150.261 114.59V135.646H142.22V116.407C142.22 110.565 140.072 107.657 135.803 107.657C133.367 107.657 131.455 108.722 129.988 110.825C128.548 112.928 127.814 116.043 127.814 120.094V135.62H119.616V135.672Z" fill="#224722"/>
<path d="M165.06 123.417C165.06 125.442 165.374 126.948 166.029 127.908C166.658 128.869 167.836 129.336 169.513 129.336H171.713V135.801H167.784C165.793 135.827 164.091 135.567 162.677 135.022C161.262 134.477 160.162 133.698 159.35 132.634C158.538 131.595 157.962 130.401 157.622 129.051C157.255 127.726 157.098 126.195 157.098 124.455V107.813H153.064V101.608H157.098V92.105H165.086V101.608H171.87V107.813H165.086V123.417H165.06Z" fill="#224722"/>
<path d="M175.588 112.045C175.824 110.617 176.296 109.241 177.029 107.917C177.736 106.593 178.679 105.372 179.832 104.256C180.984 103.14 182.451 102.231 184.232 101.582C186.013 100.907 187.977 100.595 190.125 100.595C192.797 100.595 195.128 100.959 197.066 101.712C199.004 102.439 200.523 103.503 201.623 104.853C202.723 106.203 203.509 107.709 204.007 109.345C204.504 111.006 204.74 112.85 204.74 114.901V127.597C204.74 130.868 204.923 133.568 205.316 135.697H197.144C196.961 134.581 196.882 133.335 196.882 131.933V130.297H196.83C194.866 134.529 191.251 136.632 185.987 136.632C182.294 136.632 179.36 135.646 177.212 133.698C175.065 131.725 173.991 129.31 173.991 126.403C173.991 125.208 174.174 124.092 174.567 123.079C174.96 122.067 175.431 121.236 176.034 120.535C176.61 119.86 177.369 119.237 178.286 118.692C179.203 118.146 180.067 117.705 180.905 117.393C181.717 117.082 182.686 116.77 183.813 116.511C184.939 116.251 185.856 116.043 186.589 115.939C187.322 115.81 188.187 115.706 189.156 115.576C189.706 115.524 190.099 115.446 190.334 115.42C192.692 115.083 194.368 114.615 195.337 114.018C196.306 113.421 196.804 112.46 196.804 111.084C196.804 109.734 196.228 108.67 195.075 107.891C193.923 107.112 192.325 106.723 190.282 106.723C188.501 106.723 187.008 107.19 185.751 108.151C184.494 109.111 183.682 110.409 183.236 112.071H175.588V112.045ZM183.682 122.898C182.555 123.676 182.005 124.741 182.005 126.065C182.005 127.389 182.555 128.48 183.629 129.31C184.703 130.141 186.222 130.557 188.134 130.557C189.313 130.557 190.413 130.375 191.435 129.986C192.43 129.622 193.373 129.025 194.211 128.22C195.049 127.415 195.704 126.299 196.201 124.897C196.673 123.469 196.909 121.807 196.909 119.886V116.744C196.463 117.731 195.625 118.588 194.447 119.289C193.268 119.99 191.408 120.587 188.92 121.08C186.537 121.496 184.782 122.119 183.682 122.898Z" fill="#224722"/>
<path d="M62.4921 93.9484C59.3491 91.2222 55.1846 89.8462 49.9986 89.8462H33V135.671H34.6239C38.4217 135.671 41.4862 132.608 41.4862 128.869V119.418V112.434V96.8303H49.3176C52.2773 96.8303 54.6083 97.4794 56.2584 98.7516C57.9347 100.05 58.7467 101.945 58.7467 104.515C58.7467 107.06 57.8823 109.033 56.1537 110.383C54.425 111.733 52.0939 112.434 49.1342 112.434C46.2269 112.434 43.8696 114.771 43.8696 117.653V119.418H49.8414C53.063 119.418 55.9965 118.769 58.6681 117.445C61.3397 116.147 63.4088 114.329 64.9541 112.045C66.4733 109.76 67.2328 107.19 67.2328 104.386C67.2067 100.154 65.6351 96.6745 62.4921 93.9484Z" fill="#224722"/>
</g>
<defs>
<clipPath id="clip0_9489_57993">
<rect width="172.343" height="46.7597" fill="white" transform="translate(33 89.8462)"/>
</clipPath>
</defs>
</svg>
